<svg xmlns="http://www.w3.org/2000/svg" xmlns:svg="http://www.w3.org/2000/svg" xmlns:xlink="http://www.w3.org/1999/xlink" id="svg8" width="1000" height="1000" version="1.1" viewBox="0 0 264.584 264.583"><defs id="defs2"><linearGradient id="linearGradient927"><stop style="stop-color:#009100;stop-opacity:1" id="stop923" offset="0"/><stop style="stop-color:#009100;stop-opacity:0" id="stop925" offset="1"/></linearGradient><radialGradient id="radialGradient929" cx="45.867" cy="282.204" r="36.089" fx="45.867" fy="282.204" gradientTransform="matrix(6.8295096,-6.6029816,9.9543908,10.295894,-2975.9284,-2423.9445)" gradientUnits="userSpaceOnUse" xlink:href="#linearGradient927"/></defs><metadata id="metadata5"/><g id="layer1" transform="translate(0,-32.416256)"><path style="fill:none;fill-opacity:1;fill-rule:evenodd;stroke:url(#radialGradient929);stroke-width:22.19278336;stroke-miterlimit:4;stroke-dasharray:none;stroke-opacity:1" id="path815" d="m 146.49182,178.74434 c -6.55931,-5.81706 4.60515,-11.71175 9.66834,-10.90201 13.72092,2.19436 16.93783,19.40766 12.13567,30.23868 -8.58993,19.37414 -33.69062,23.08884 -50.80901,13.36935 C 92.364898,197.18661 88.078734,163.28809 102.8838,140.071 c 19.73282,-30.94472 62.70022,-35.79816 91.94969,-15.83669 36.80748,25.11947 42.22472,77.26962 17.07037,112.52003 C 181.43857,279.44732 120.04717,285.4267 78.813483,255.05838 30.221011,219.27037 23.680253,148.60361 59.275772,101.39767 82.917837,70.044115 121.56528,52.545551 160.65312,54.082852"/><ellipse style="opacity:1;fill:#009600;fill-opacity:1;fill-rule:nonzero;stroke:none;stroke-width:43.72273254;stroke-miterlimit:4;stroke-dasharray:none;stroke-dashoffset:0;stroke-opacity:1" id="path865" cx="148.933" cy="179.273" rx="13.308" ry="11.51"/></g></svg>